<svg xmlns="http://www.w3.org/2000/svg" viewBox="0 0 100 100"><rect x="20.00" y="20.00" width="8.00" height="8.00" fill="#D97706" rx="1"/><rect x="27.50" y="20.00" width="8.00" height="8.00" fill="#D97706" rx="1"/><rect x="35.00" y="20.00" width="8.00" height="8.00" fill="#D97706" rx="1"/><rect x="42.50" y="20.00" width="8.00" height="8.00" fill="#D97706" rx="1"/><rect x="50.00" y="20.00" width="8.00" height="8.00" fill="#D97706" rx="1"/><rect x="57.50" y="20.00" width="8.00" height="8.00" fill="#D97706" rx="1"/><rect x="65.00" y="20.00" width="8.00" height="8.00" fill="#D97706" rx="1"/><rect x="72.50" y="20.00" width="8.00" height="8.00" fill="#D97706" rx="1"/><rect x="20.00" y="27.50" width="8.00" height="8.00" fill="#D97706" rx="1"/><rect x="27.50" y="27.50" width="8.00" height="8.00" fill="#D97706" rx="1"/><rect x="35.00" y="27.50" width="8.00" height="8.00" fill="#D97706" rx="1"/><rect x="42.50" y="27.50" width="8.00" height="8.00" fill="#D97706" rx="1"/><rect x="50.00" y="27.50" width="8.00" height="8.00" fill="#D97706" rx="1"/><rect x="57.50" y="27.50" width="8.00" height="8.00" fill="#D97706" rx="1"/><rect x="65.00" y="27.50" width="8.00" height="8.00" fill="#D97706" rx="1"/><rect x="72.50" y="27.50" width="8.00" height="8.00" fill="#D97706" rx="1"/><rect x="20.00" y="35.00" width="8.00" height="8.00" fill="#D97706" rx="1"/><rect x="35.00" y="35.00" width="8.00" height="8.00" fill="#D97706" rx="1"/><rect x="42.50" y="35.00" width="8.00" height="8.00" fill="#D97706" rx="1"/><rect x="50.00" y="35.00" width="8.00" height="8.00" fill="#D97706" rx="1"/><rect x="57.50" y="35.00" width="8.00" height="8.00" fill="#D97706" rx="1"/><rect x="72.50" y="35.00" width="8.00" height="8.00" fill="#D97706" rx="1"/><rect x="20.00" y="42.50" width="8.00" height="8.00" fill="#D97706" rx="1"/><rect x="35.00" y="42.50" width="8.00" height="8.00" fill="#D97706" rx="1"/><rect x="42.50" y="42.50" width="8.00" height="8.00" fill="#D97706" rx="1"/><rect x="50.00" y="42.50" width="8.00" height="8.00" fill="#D97706" rx="1"/><rect x="57.50" y="42.50" width="8.00" height="8.00" fill="#D97706" rx="1"/><rect x="72.50" y="42.50" width="8.00" height="8.00" fill="#D97706" rx="1"/><rect x="5.00" y="50.00" width="8.00" height="8.00" fill="#D97706" rx="1"/><rect x="12.50" y="50.00" width="8.00" height="8.00" fill="#D97706" rx="1"/><rect x="20.00" y="50.00" width="8.00" height="8.00" fill="#D97706" rx="1"/><rect x="27.50" y="50.00" width="8.00" height="8.00" fill="#D97706" rx="1"/><rect x="35.00" y="50.00" width="8.00" height="8.00" fill="#D97706" rx="1"/><rect x="42.50" y="50.00" width="8.00" height="8.00" fill="#D97706" rx="1"/><rect x="50.00" y="50.00" width="8.00" height="8.00" fill="#D97706" rx="1"/><rect x="57.50" y="50.00" width="8.00" height="8.00" fill="#D97706" rx="1"/><rect x="65.00" y="50.00" width="8.00" height="8.00" fill="#D97706" rx="1"/><rect x="72.50" y="50.00" width="8.00" height="8.00" fill="#D97706" rx="1"/><rect x="80.00" y="50.00" width="8.00" height="8.00" fill="#D97706" rx="1"/><rect x="87.50" y="50.00" width="8.00" height="8.00" fill="#D97706" rx="1"/><rect x="5.00" y="57.50" width="8.00" height="8.00" fill="#D97706" rx="1"/><rect x="12.50" y="57.50" width="8.00" height="8.00" fill="#D97706" rx="1"/><rect x="20.00" y="57.50" width="8.00" height="8.00" fill="#D97706" rx="1"/><rect x="27.50" y="57.50" width="8.00" height="8.00" fill="#D97706" rx="1"/><rect x="35.00" y="57.50" width="8.00" height="8.00" fill="#D97706" rx="1"/><rect x="42.50" y="57.50" width="8.00" height="8.00" fill="#D97706" rx="1"/><rect x="50.00" y="57.50" width="8.00" height="8.00" fill="#D97706" rx="1"/><rect x="57.50" y="57.50" width="8.00" height="8.00" fill="#D97706" rx="1"/><rect x="65.00" y="57.50" width="8.00" height="8.00" fill="#D97706" rx="1"/><rect x="72.50" y="57.50" width="8.00" height="8.00" fill="#D97706" rx="1"/><rect x="80.00" y="57.50" width="8.00" height="8.00" fill="#D97706" rx="1"/><rect x="87.50" y="57.50" width="8.00" height="8.00" fill="#D97706" rx="1"/><rect x="12.50" y="65.00" width="8.00" height="8.00" fill="#D97706" rx="1"/><rect x="35.00" y="65.00" width="8.00" height="8.00" fill="#D97706" rx="1"/><rect x="57.50" y="65.00" width="8.00" height="8.00" fill="#D97706" rx="1"/><rect x="80.00" y="65.00" width="8.00" height="8.00" fill="#D97706" rx="1"/><rect x="12.50" y="72.50" width="8.00" height="8.00" fill="#D97706" rx="1"/><rect x="35.00" y="72.50" width="8.00" height="8.00" fill="#D97706" rx="1"/><rect x="57.50" y="72.50" width="8.00" height="8.00" fill="#D97706" rx="1"/><rect x="80.00" y="72.50" width="8.00" height="8.00" fill="#D97706" rx="1"/></svg>